<mxfile host="app.diagrams.net" agent="Mozilla/5.0 (Windows NT 10.0; Win64; x64) AppleWebKit/537.36 (KHTML, like Gecko) Chrome/131.0.0.0 Safari/537.36" version="25.0.3" pages="2">
  <diagram name="Song System API" id="7P1-5LUddxMdaVK0XYAh">
    <mxGraphModel dx="2648" dy="627" grid="1" gridSize="10" guides="1" tooltips="1" connect="1" arrows="1" fold="1" page="1" pageScale="1" pageWidth="850" pageHeight="1100" math="0" shadow="0">
      <root>
        <mxCell id="0" />
        <mxCell id="1" parent="0" />
        <mxCell id="IGP91h_cHpOLYnScG89x-2" value="" style="sketch=0;points=[[0,0,0],[0.25,0,0],[0.5,0,0],[0.75,0,0],[1,0,0],[0,1,0],[0.25,1,0],[0.5,1,0],[0.75,1,0],[1,1,0],[0,0.25,0],[0,0.5,0],[0,0.75,0],[1,0.25,0],[1,0.5,0],[1,0.75,0]];outlineConnect=0;fontColor=#232F3E;fillColor=#8C4FFF;strokeColor=#ffffff;dashed=0;verticalLabelPosition=bottom;verticalAlign=top;align=center;html=1;fontSize=12;fontStyle=0;aspect=fixed;shape=mxgraph.aws4.resourceIcon;resIcon=mxgraph.aws4.route_53;" parent="1" vertex="1">
          <mxGeometry x="450" y="250" width="50" height="50" as="geometry" />
        </mxCell>
        <mxCell id="2VL3G-0FK4CuiI1bKmZT-9" value="Rest API" style="sketch=0;points=[[0,0,0],[0.25,0,0],[0.5,0,0],[0.75,0,0],[1,0,0],[0,1,0],[0.25,1,0],[0.5,1,0],[0.75,1,0],[1,1,0],[0,0.25,0],[0,0.5,0],[0,0.75,0],[1,0.25,0],[1,0.5,0],[1,0.75,0]];outlineConnect=0;fontColor=#232F3E;fillColor=#E7157B;strokeColor=#ffffff;dashed=0;verticalLabelPosition=bottom;verticalAlign=top;align=center;html=1;fontSize=12;fontStyle=0;aspect=fixed;shape=mxgraph.aws4.resourceIcon;resIcon=mxgraph.aws4.api_gateway;" parent="1" vertex="1">
          <mxGeometry x="450" y="450" width="50" height="50" as="geometry" />
        </mxCell>
        <mxCell id="2VL3G-0FK4CuiI1bKmZT-13" value="" style="sketch=0;points=[[0,0,0],[0.25,0,0],[0.5,0,0],[0.75,0,0],[1,0,0],[0,1,0],[0.25,1,0],[0.5,1,0],[0.75,1,0],[1,1,0],[0,0.25,0],[0,0.5,0],[0,0.75,0],[1,0.25,0],[1,0.5,0],[1,0.75,0]];outlineConnect=0;fontColor=#232F3E;fillColor=#C925D1;strokeColor=#ffffff;dashed=0;verticalLabelPosition=bottom;verticalAlign=top;align=center;html=1;fontSize=12;fontStyle=0;aspect=fixed;shape=mxgraph.aws4.resourceIcon;resIcon=mxgraph.aws4.dynamodb;" parent="1" vertex="1">
          <mxGeometry x="1010" y="388.5" width="47" height="47" as="geometry" />
        </mxCell>
        <mxCell id="2VL3G-0FK4CuiI1bKmZT-27" style="edgeStyle=orthogonalEdgeStyle;rounded=0;orthogonalLoop=1;jettySize=auto;html=1;exitX=1;exitY=0.25;exitDx=0;exitDy=0;exitPerimeter=0;" parent="1" source="2VL3G-0FK4CuiI1bKmZT-23" target="2VL3G-0FK4CuiI1bKmZT-24" edge="1">
          <mxGeometry relative="1" as="geometry">
            <mxPoint x="1040.1399999999999" y="773.32" as="targetPoint" />
            <mxPoint x="952.5400000000001" y="773.32" as="sourcePoint" />
          </mxGeometry>
        </mxCell>
        <mxCell id="2VL3G-0FK4CuiI1bKmZT-28" value="search" style="edgeLabel;html=1;align=center;verticalAlign=middle;resizable=0;points=[];" parent="2VL3G-0FK4CuiI1bKmZT-27" vertex="1" connectable="0">
          <mxGeometry x="-0.2579" relative="1" as="geometry">
            <mxPoint as="offset" />
          </mxGeometry>
        </mxCell>
        <mxCell id="2VL3G-0FK4CuiI1bKmZT-23" value="request-song" style="sketch=0;points=[[0,0,0],[0.25,0,0],[0.5,0,0],[0.75,0,0],[1,0,0],[0,1,0],[0.25,1,0],[0.5,1,0],[0.75,1,0],[1,1,0],[0,0.25,0],[0,0.5,0],[0,0.75,0],[1,0.25,0],[1,0.5,0],[1,0.75,0]];outlineConnect=0;fontColor=#232F3E;fillColor=#ED7100;strokeColor=#ffffff;dashed=0;verticalLabelPosition=bottom;verticalAlign=top;align=center;html=1;fontSize=12;fontStyle=0;aspect=fixed;shape=mxgraph.aws4.resourceIcon;resIcon=mxgraph.aws4.lambda;" parent="1" vertex="1">
          <mxGeometry x="908.5" y="633.32" width="46.68" height="46.68" as="geometry" />
        </mxCell>
        <mxCell id="2VL3G-0FK4CuiI1bKmZT-24" value="" style="dashed=0;outlineConnect=0;html=1;align=center;labelPosition=center;verticalLabelPosition=bottom;verticalAlign=top;shape=mxgraph.weblogos.youtube;fillColor=#FF2626;gradientColor=#B5171F" parent="1" vertex="1">
          <mxGeometry x="1225" y="630" width="100" height="31.9" as="geometry" />
        </mxCell>
        <mxCell id="2VL3G-0FK4CuiI1bKmZT-42" style="edgeStyle=none;rounded=0;orthogonalLoop=1;jettySize=auto;html=1;exitX=0.5;exitY=0;exitDx=0;exitDy=0;exitPerimeter=0;entryX=0.5;entryY=1;entryDx=0;entryDy=0;entryPerimeter=0;" parent="1" source="2VL3G-0FK4CuiI1bKmZT-9" target="IGP91h_cHpOLYnScG89x-2" edge="1">
          <mxGeometry relative="1" as="geometry">
            <mxPoint x="290" y="220" as="sourcePoint" />
          </mxGeometry>
        </mxCell>
        <mxCell id="2VL3G-0FK4CuiI1bKmZT-43" value="" style="outlineConnect=0;dashed=0;verticalLabelPosition=bottom;verticalAlign=top;align=center;html=1;shape=mxgraph.aws3.parameter_store;fillColor=#759C3E;gradientColor=none;" parent="1" vertex="1">
          <mxGeometry x="978.33" y="770" width="28.5" height="40" as="geometry" />
        </mxCell>
        <mxCell id="2VL3G-0FK4CuiI1bKmZT-45" style="edgeStyle=orthogonalEdgeStyle;rounded=0;orthogonalLoop=1;jettySize=auto;html=1;exitX=1;exitY=0.75;exitDx=0;exitDy=0;exitPerimeter=0;" parent="1" source="2VL3G-0FK4CuiI1bKmZT-23" target="2VL3G-0FK4CuiI1bKmZT-43" edge="1">
          <mxGeometry relative="1" as="geometry">
            <mxPoint x="953" y="793" as="sourcePoint" />
            <mxPoint x="1121.6399999999999" y="895.32" as="targetPoint" />
          </mxGeometry>
        </mxCell>
        <mxCell id="sdZgEBrUPHSbcFOROOqU-1" value="Get Rule Configurations&lt;div&gt;&lt;br&gt;&lt;/div&gt;" style="edgeLabel;html=1;align=center;verticalAlign=middle;resizable=0;points=[];" parent="2VL3G-0FK4CuiI1bKmZT-45" vertex="1" connectable="0">
          <mxGeometry x="-0.0265" y="1" relative="1" as="geometry">
            <mxPoint x="1" y="32" as="offset" />
          </mxGeometry>
        </mxCell>
        <mxCell id="NtjBOqm6TF3TTWoHX7JR-1" value="" style="shape=image;html=1;verticalAlign=top;verticalLabelPosition=bottom;labelBackgroundColor=#ffffff;imageAspect=0;aspect=fixed;image=https://cdn4.iconfinder.com/data/icons/logos-brands-7/512/twitch-128.png" parent="1" vertex="1">
          <mxGeometry x="148.05" y="360" width="44" height="44" as="geometry" />
        </mxCell>
        <mxCell id="NtjBOqm6TF3TTWoHX7JR-5" style="edgeStyle=orthogonalEdgeStyle;rounded=0;orthogonalLoop=1;jettySize=auto;html=1;exitX=0.93;exitY=0.5;exitDx=0;exitDy=0;exitPerimeter=0;entryX=0;entryY=0.5;entryDx=0;entryDy=0;entryPerimeter=0;" parent="1" source="NtjBOqm6TF3TTWoHX7JR-3" target="2VL3G-0FK4CuiI1bKmZT-9" edge="1">
          <mxGeometry relative="1" as="geometry">
            <mxPoint x="290" y="300" as="targetPoint" />
          </mxGeometry>
        </mxCell>
        <mxCell id="NtjBOqm6TF3TTWoHX7JR-3" value="" style="sketch=0;aspect=fixed;pointerEvents=1;shadow=0;dashed=0;html=1;strokeColor=none;labelPosition=center;verticalLabelPosition=bottom;verticalAlign=top;align=center;shape=mxgraph.mscae.enterprise.website_generic;fillColor=#7D7D7D;" parent="1" vertex="1">
          <mxGeometry x="150" y="492.9" width="42.05" height="37" as="geometry" />
        </mxCell>
        <mxCell id="NtjBOqm6TF3TTWoHX7JR-4" style="edgeStyle=orthogonalEdgeStyle;rounded=0;orthogonalLoop=1;jettySize=auto;html=1;exitX=1;exitY=0.5;exitDx=0;exitDy=0;entryX=0;entryY=0.5;entryDx=0;entryDy=0;entryPerimeter=0;" parent="1" source="NtjBOqm6TF3TTWoHX7JR-1" target="2VL3G-0FK4CuiI1bKmZT-9" edge="1">
          <mxGeometry relative="1" as="geometry">
            <mxPoint x="250" y="260" as="targetPoint" />
          </mxGeometry>
        </mxCell>
        <mxCell id="lM63qZQmRyJLuJ4yW73Q-4" style="edgeStyle=orthogonalEdgeStyle;rounded=0;orthogonalLoop=1;jettySize=auto;html=1;exitX=0.89;exitY=0.5;exitDx=0;exitDy=0;exitPerimeter=0;" parent="1" source="-T8zLmyoQoKM_eU66oDU-1" target="-T8zLmyoQoKM_eU66oDU-15" edge="1">
          <mxGeometry relative="1" as="geometry" />
        </mxCell>
        <mxCell id="-T8zLmyoQoKM_eU66oDU-1" value="Song Played Event" style="outlineConnect=0;dashed=0;verticalLabelPosition=bottom;verticalAlign=top;align=center;html=1;shape=mxgraph.aws3.event_event_based;fillColor=#759C3E;gradientColor=none;" parent="1" vertex="1">
          <mxGeometry x="1099.9999999999998" y="529.9000000000001" width="50" height="62.5" as="geometry" />
        </mxCell>
        <mxCell id="lM63qZQmRyJLuJ4yW73Q-3" style="edgeStyle=orthogonalEdgeStyle;rounded=0;orthogonalLoop=1;jettySize=auto;html=1;exitX=1;exitY=0.5;exitDx=0;exitDy=0;exitPerimeter=0;" parent="1" source="-T8zLmyoQoKM_eU66oDU-2" target="-T8zLmyoQoKM_eU66oDU-1" edge="1">
          <mxGeometry relative="1" as="geometry" />
        </mxCell>
        <mxCell id="-T8zLmyoQoKM_eU66oDU-2" value="" style="sketch=0;points=[[0,0,0],[0.25,0,0],[0.5,0,0],[0.75,0,0],[1,0,0],[0,1,0],[0.25,1,0],[0.5,1,0],[0.75,1,0],[1,1,0],[0,0.25,0],[0,0.5,0],[0,0.75,0],[1,0.25,0],[1,0.5,0],[1,0.75,0]];outlineConnect=0;fontColor=#232F3E;fillColor=#E7157B;strokeColor=#ffffff;dashed=0;verticalLabelPosition=bottom;verticalAlign=top;align=center;html=1;fontSize=12;fontStyle=0;aspect=fixed;shape=mxgraph.aws4.resourceIcon;resIcon=mxgraph.aws4.eventbridge;" parent="1" vertex="1">
          <mxGeometry x="930" y="536.99" width="48.33" height="48.33" as="geometry" />
        </mxCell>
        <mxCell id="-T8zLmyoQoKM_eU66oDU-8" style="edgeStyle=orthogonalEdgeStyle;rounded=0;orthogonalLoop=1;jettySize=auto;html=1;exitX=1;exitY=0.5;exitDx=0;exitDy=0;exitPerimeter=0;entryX=0;entryY=0.5;entryDx=0;entryDy=0;entryPerimeter=0;" parent="1" source="-T8zLmyoQoKM_eU66oDU-15" target="coX9T3D7CSQItAxB6FTY-23" edge="1">
          <mxGeometry relative="1" as="geometry">
            <mxPoint x="1512" y="638.99" as="sourcePoint" />
            <mxPoint x="1601.000000000001" y="608.9899999999998" as="targetPoint" />
          </mxGeometry>
        </mxCell>
        <mxCell id="-T8zLmyoQoKM_eU66oDU-9" style="edgeStyle=orthogonalEdgeStyle;rounded=0;orthogonalLoop=1;jettySize=auto;html=1;exitX=1;exitY=0.5;exitDx=0;exitDy=0;exitPerimeter=0;entryX=1;entryY=0.5;entryDx=0;entryDy=0;entryPerimeter=0;" parent="1" source="coX9T3D7CSQItAxB6FTY-23" target="2VL3G-0FK4CuiI1bKmZT-13" edge="1">
          <mxGeometry relative="1" as="geometry">
            <mxPoint x="1572.000000000001" y="421.99" as="sourcePoint" />
            <mxPoint x="998" y="350" as="targetPoint" />
          </mxGeometry>
        </mxCell>
        <mxCell id="-T8zLmyoQoKM_eU66oDU-10" value="Save Song &amp;amp; Play Transaction" style="edgeLabel;html=1;align=center;verticalAlign=middle;resizable=0;points=[];" parent="-T8zLmyoQoKM_eU66oDU-9" vertex="1" connectable="0">
          <mxGeometry x="0.1707" y="1" relative="1" as="geometry">
            <mxPoint as="offset" />
          </mxGeometry>
        </mxCell>
        <mxCell id="-T8zLmyoQoKM_eU66oDU-15" value="" style="sketch=0;points=[[0,0,0],[0.25,0,0],[0.5,0,0],[0.75,0,0],[1,0,0],[0,1,0],[0.25,1,0],[0.5,1,0],[0.75,1,0],[1,1,0],[0,0.25,0],[0,0.5,0],[0,0.75,0],[1,0.25,0],[1,0.5,0],[1,0.75,0]];outlineConnect=0;fontColor=#232F3E;fillColor=#E7157B;strokeColor=#ffffff;dashed=0;verticalLabelPosition=bottom;verticalAlign=top;align=center;html=1;fontSize=12;fontStyle=0;aspect=fixed;shape=mxgraph.aws4.resourceIcon;resIcon=mxgraph.aws4.sqs;" parent="1" vertex="1">
          <mxGeometry x="1260" y="536.99" width="50" height="50" as="geometry" />
        </mxCell>
        <mxCell id="-T8zLmyoQoKM_eU66oDU-16" value="DLQ" style="sketch=0;points=[[0,0,0],[0.25,0,0],[0.5,0,0],[0.75,0,0],[1,0,0],[0,1,0],[0.25,1,0],[0.5,1,0],[0.75,1,0],[1,1,0],[0,0.25,0],[0,0.5,0],[0,0.75,0],[1,0.25,0],[1,0.5,0],[1,0.75,0]];outlineConnect=0;fontColor=#232F3E;fillColor=#E7157B;strokeColor=#ffffff;dashed=0;verticalLabelPosition=bottom;verticalAlign=top;align=center;html=1;fontSize=12;fontStyle=0;aspect=fixed;shape=mxgraph.aws4.resourceIcon;resIcon=mxgraph.aws4.sqs;" parent="1" vertex="1">
          <mxGeometry x="1340" y="464.9999999999999" width="48" height="48" as="geometry" />
        </mxCell>
        <mxCell id="coX9T3D7CSQItAxB6FTY-16" style="edgeStyle=orthogonalEdgeStyle;rounded=0;orthogonalLoop=1;jettySize=auto;html=1;entryX=0;entryY=0.5;entryDx=0;entryDy=0;entryPerimeter=0;" edge="1" parent="1" source="coX9T3D7CSQItAxB6FTY-4" target="2VL3G-0FK4CuiI1bKmZT-13">
          <mxGeometry relative="1" as="geometry">
            <mxPoint x="910" y="470" as="targetPoint" />
          </mxGeometry>
        </mxCell>
        <mxCell id="coX9T3D7CSQItAxB6FTY-4" value="/song-requests/{songId}/details" style="sketch=0;outlineConnect=0;fontColor=#232F3E;gradientColor=none;fillColor=#E7157B;strokeColor=none;dashed=0;verticalLabelPosition=bottom;verticalAlign=top;align=center;html=1;fontSize=12;fontStyle=0;aspect=fixed;pointerEvents=1;shape=mxgraph.aws4.endpoint;" vertex="1" parent="1">
          <mxGeometry x="690" y="340" width="50" height="50" as="geometry" />
        </mxCell>
        <mxCell id="coX9T3D7CSQItAxB6FTY-13" style="edgeStyle=orthogonalEdgeStyle;rounded=0;orthogonalLoop=1;jettySize=auto;html=1;startArrow=classic;startFill=1;endArrow=none;endFill=0;" edge="1" parent="1" source="coX9T3D7CSQItAxB6FTY-6" target="2VL3G-0FK4CuiI1bKmZT-9">
          <mxGeometry relative="1" as="geometry" />
        </mxCell>
        <mxCell id="coX9T3D7CSQItAxB6FTY-17" style="edgeStyle=orthogonalEdgeStyle;rounded=0;orthogonalLoop=1;jettySize=auto;html=1;entryX=0;entryY=0.5;entryDx=0;entryDy=0;entryPerimeter=0;" edge="1" parent="1" source="coX9T3D7CSQItAxB6FTY-6" target="2VL3G-0FK4CuiI1bKmZT-13">
          <mxGeometry relative="1" as="geometry">
            <mxPoint x="780" y="459" as="targetPoint" />
          </mxGeometry>
        </mxCell>
        <mxCell id="coX9T3D7CSQItAxB6FTY-21" value="AWS Integration" style="edgeLabel;html=1;align=center;verticalAlign=middle;resizable=0;points=[];" vertex="1" connectable="0" parent="coX9T3D7CSQItAxB6FTY-17">
          <mxGeometry x="0.2681" y="2" relative="1" as="geometry">
            <mxPoint x="46" y="2" as="offset" />
          </mxGeometry>
        </mxCell>
        <mxCell id="coX9T3D7CSQItAxB6FTY-6" value="/song-requests/{songId}/plays" style="sketch=0;outlineConnect=0;fontColor=#232F3E;gradientColor=none;fillColor=#E7157B;strokeColor=none;dashed=0;verticalLabelPosition=bottom;verticalAlign=top;align=center;html=1;fontSize=12;fontStyle=0;aspect=fixed;pointerEvents=1;shape=mxgraph.aws4.endpoint;" vertex="1" parent="1">
          <mxGeometry x="690" y="434" width="50" height="50" as="geometry" />
        </mxCell>
        <mxCell id="coX9T3D7CSQItAxB6FTY-7" value="/song-requests/save" style="sketch=0;outlineConnect=0;fontColor=#232F3E;gradientColor=none;fillColor=#E7157B;strokeColor=none;dashed=0;verticalLabelPosition=bottom;verticalAlign=top;align=center;html=1;fontSize=12;fontStyle=0;aspect=fixed;pointerEvents=1;shape=mxgraph.aws4.endpoint;" vertex="1" parent="1">
          <mxGeometry x="690" y="535.32" width="50" height="50" as="geometry" />
        </mxCell>
        <mxCell id="coX9T3D7CSQItAxB6FTY-8" value="/song-requests/request/{songId}" style="sketch=0;outlineConnect=0;fontColor=#232F3E;gradientColor=none;fillColor=#E7157B;strokeColor=none;dashed=0;verticalLabelPosition=bottom;verticalAlign=top;align=center;html=1;fontSize=12;fontStyle=0;aspect=fixed;pointerEvents=1;shape=mxgraph.aws4.endpoint;" vertex="1" parent="1">
          <mxGeometry x="690" y="632.32" width="50" height="50" as="geometry" />
        </mxCell>
        <mxCell id="coX9T3D7CSQItAxB6FTY-12" style="edgeStyle=orthogonalEdgeStyle;rounded=0;orthogonalLoop=1;jettySize=auto;html=1;entryX=1;entryY=0.5;entryDx=0;entryDy=0;entryPerimeter=0;startArrow=classic;startFill=1;endArrow=none;endFill=0;" edge="1" parent="1" source="coX9T3D7CSQItAxB6FTY-4" target="2VL3G-0FK4CuiI1bKmZT-9">
          <mxGeometry relative="1" as="geometry" />
        </mxCell>
        <mxCell id="coX9T3D7CSQItAxB6FTY-14" style="edgeStyle=orthogonalEdgeStyle;rounded=0;orthogonalLoop=1;jettySize=auto;html=1;entryX=1;entryY=0.5;entryDx=0;entryDy=0;entryPerimeter=0;startArrow=classic;startFill=1;endArrow=none;endFill=0;" edge="1" parent="1" source="coX9T3D7CSQItAxB6FTY-7" target="2VL3G-0FK4CuiI1bKmZT-9">
          <mxGeometry relative="1" as="geometry" />
        </mxCell>
        <mxCell id="coX9T3D7CSQItAxB6FTY-15" style="edgeStyle=orthogonalEdgeStyle;rounded=0;orthogonalLoop=1;jettySize=auto;html=1;entryX=1;entryY=0.5;entryDx=0;entryDy=0;entryPerimeter=0;startArrow=classic;startFill=1;endArrow=none;endFill=0;" edge="1" parent="1" source="coX9T3D7CSQItAxB6FTY-8" target="2VL3G-0FK4CuiI1bKmZT-9">
          <mxGeometry relative="1" as="geometry" />
        </mxCell>
        <mxCell id="coX9T3D7CSQItAxB6FTY-18" style="edgeStyle=orthogonalEdgeStyle;rounded=0;orthogonalLoop=1;jettySize=auto;html=1;entryX=0;entryY=0.5;entryDx=0;entryDy=0;entryPerimeter=0;" edge="1" parent="1" source="coX9T3D7CSQItAxB6FTY-7" target="-T8zLmyoQoKM_eU66oDU-2">
          <mxGeometry relative="1" as="geometry" />
        </mxCell>
        <mxCell id="coX9T3D7CSQItAxB6FTY-22" value="AWS Integration" style="edgeLabel;html=1;align=center;verticalAlign=middle;resizable=0;points=[];" vertex="1" connectable="0" parent="coX9T3D7CSQItAxB6FTY-18">
          <mxGeometry x="-0.0865" y="-3" relative="1" as="geometry">
            <mxPoint x="13" y="-3" as="offset" />
          </mxGeometry>
        </mxCell>
        <mxCell id="coX9T3D7CSQItAxB6FTY-20" style="edgeStyle=orthogonalEdgeStyle;rounded=0;orthogonalLoop=1;jettySize=auto;html=1;entryX=0;entryY=0.5;entryDx=0;entryDy=0;entryPerimeter=0;" edge="1" parent="1" source="coX9T3D7CSQItAxB6FTY-8" target="2VL3G-0FK4CuiI1bKmZT-23">
          <mxGeometry relative="1" as="geometry" />
        </mxCell>
        <mxCell id="coX9T3D7CSQItAxB6FTY-23" value="save-song-handler" style="sketch=0;points=[[0,0,0],[0.25,0,0],[0.5,0,0],[0.75,0,0],[1,0,0],[0,1,0],[0.25,1,0],[0.5,1,0],[0.75,1,0],[1,1,0],[0,0.25,0],[0,0.5,0],[0,0.75,0],[1,0.25,0],[1,0.5,0],[1,0.75,0]];outlineConnect=0;fontColor=#232F3E;fillColor=#ED7100;strokeColor=#ffffff;dashed=0;verticalLabelPosition=bottom;verticalAlign=top;align=center;html=1;fontSize=12;fontStyle=0;aspect=fixed;shape=mxgraph.aws4.resourceIcon;resIcon=mxgraph.aws4.lambda;" vertex="1" parent="1">
          <mxGeometry x="1410" y="538.64" width="46.68" height="46.68" as="geometry" />
        </mxCell>
        <mxCell id="coX9T3D7CSQItAxB6FTY-32" style="edgeStyle=orthogonalEdgeStyle;rounded=0;orthogonalLoop=1;jettySize=auto;html=1;exitX=0.5;exitY=0;exitDx=0;exitDy=0;exitPerimeter=0;entryX=1;entryY=0.5;entryDx=0;entryDy=0;entryPerimeter=0;" edge="1" parent="1" source="coX9T3D7CSQItAxB6FTY-23" target="-T8zLmyoQoKM_eU66oDU-16">
          <mxGeometry relative="1" as="geometry" />
        </mxCell>
        <mxCell id="coX9T3D7CSQItAxB6FTY-34" value="Errors" style="edgeLabel;html=1;align=center;verticalAlign=middle;resizable=0;points=[];" vertex="1" connectable="0" parent="coX9T3D7CSQItAxB6FTY-32">
          <mxGeometry x="-0.5724" y="-1" relative="1" as="geometry">
            <mxPoint as="offset" />
          </mxGeometry>
        </mxCell>
        <mxCell id="coX9T3D7CSQItAxB6FTY-33" style="edgeStyle=orthogonalEdgeStyle;rounded=0;orthogonalLoop=1;jettySize=auto;html=1;entryX=0.5;entryY=0;entryDx=0;entryDy=0;entryPerimeter=0;" edge="1" parent="1" source="-T8zLmyoQoKM_eU66oDU-16" target="-T8zLmyoQoKM_eU66oDU-15">
          <mxGeometry relative="1" as="geometry" />
        </mxCell>
        <mxCell id="coX9T3D7CSQItAxB6FTY-35" value="Redrive" style="edgeLabel;html=1;align=center;verticalAlign=middle;resizable=0;points=[];" vertex="1" connectable="0" parent="coX9T3D7CSQItAxB6FTY-33">
          <mxGeometry x="0.495" relative="1" as="geometry">
            <mxPoint as="offset" />
          </mxGeometry>
        </mxCell>
      </root>
    </mxGraphModel>
  </diagram>
  <diagram id="VQ4Y5oHPyiHmP7uhcyO0" name="SOTN System API">
    <mxGraphModel dx="1567" dy="1005" grid="1" gridSize="10" guides="1" tooltips="1" connect="1" arrows="1" fold="1" page="1" pageScale="1" pageWidth="850" pageHeight="1100" math="0" shadow="0">
      <root>
        <mxCell id="0" />
        <mxCell id="1" parent="0" />
        <mxCell id="d9jR4iQIcVRkzN9nEGwW-1" style="edgeStyle=orthogonalEdgeStyle;rounded=0;orthogonalLoop=1;jettySize=auto;html=1;exitX=1;exitY=0.75;exitDx=0;exitDy=0;exitPerimeter=0;entryX=0;entryY=0.5;entryDx=0;entryDy=0;entryPerimeter=0;" parent="1" source="d9jR4iQIcVRkzN9nEGwW-2" target="d9jR4iQIcVRkzN9nEGwW-10" edge="1">
          <mxGeometry relative="1" as="geometry">
            <mxPoint x="454.9999999999999" y="452.969696969697" as="targetPoint" />
          </mxGeometry>
        </mxCell>
        <mxCell id="d9jR4iQIcVRkzN9nEGwW-2" value="" style="sketch=0;points=[[0,0,0],[0.25,0,0],[0.5,0,0],[0.75,0,0],[1,0,0],[0,1,0],[0.25,1,0],[0.5,1,0],[0.75,1,0],[1,1,0],[0,0.25,0],[0,0.5,0],[0,0.75,0],[1,0.25,0],[1,0.5,0],[1,0.75,0]];outlineConnect=0;fontColor=#232F3E;fillColor=#8C4FFF;strokeColor=#ffffff;dashed=0;verticalLabelPosition=bottom;verticalAlign=top;align=center;html=1;fontSize=12;fontStyle=0;aspect=fixed;shape=mxgraph.aws4.resourceIcon;resIcon=mxgraph.aws4.cloudfront;" parent="1" vertex="1">
          <mxGeometry x="270" y="320" width="80" height="80" as="geometry" />
        </mxCell>
        <mxCell id="d9jR4iQIcVRkzN9nEGwW-3" value="" style="sketch=0;points=[[0,0,0],[0.25,0,0],[0.5,0,0],[0.75,0,0],[1,0,0],[0,1,0],[0.25,1,0],[0.5,1,0],[0.75,1,0],[1,1,0],[0,0.25,0],[0,0.5,0],[0,0.75,0],[1,0.25,0],[1,0.5,0],[1,0.75,0]];outlineConnect=0;fontColor=#232F3E;fillColor=#8C4FFF;strokeColor=#ffffff;dashed=0;verticalLabelPosition=bottom;verticalAlign=top;align=center;html=1;fontSize=12;fontStyle=0;aspect=fixed;shape=mxgraph.aws4.resourceIcon;resIcon=mxgraph.aws4.route_53;" parent="1" vertex="1">
          <mxGeometry x="270" y="140" width="78" height="78" as="geometry" />
        </mxCell>
        <mxCell id="d9jR4iQIcVRkzN9nEGwW-4" style="edgeStyle=orthogonalEdgeStyle;rounded=0;orthogonalLoop=1;jettySize=auto;html=1;exitX=1;exitY=0.5;exitDx=0;exitDy=0;exitPerimeter=0;" parent="1" source="d9jR4iQIcVRkzN9nEGwW-5" target="d9jR4iQIcVRkzN9nEGwW-11" edge="1">
          <mxGeometry relative="1" as="geometry" />
        </mxCell>
        <mxCell id="d9jR4iQIcVRkzN9nEGwW-5" value="" style="sketch=0;points=[[0,0,0],[0.25,0,0],[0.5,0,0],[0.75,0,0],[1,0,0],[0,1,0],[0.25,1,0],[0.5,1,0],[0.75,1,0],[1,1,0],[0,0.25,0],[0,0.5,0],[0,0.75,0],[1,0.25,0],[1,0.5,0],[1,0.75,0]];outlineConnect=0;fontColor=#232F3E;fillColor=#7AA116;strokeColor=#ffffff;dashed=0;verticalLabelPosition=bottom;verticalAlign=top;align=center;html=1;fontSize=12;fontStyle=0;aspect=fixed;shape=mxgraph.aws4.resourceIcon;resIcon=mxgraph.aws4.s3;" parent="1" vertex="1">
          <mxGeometry x="470" y="169.8" width="78" height="78" as="geometry" />
        </mxCell>
        <mxCell id="d9jR4iQIcVRkzN9nEGwW-6" style="edgeStyle=orthogonalEdgeStyle;rounded=0;orthogonalLoop=1;jettySize=auto;html=1;exitX=1;exitY=0.25;exitDx=0;exitDy=0;exitPerimeter=0;entryX=0;entryY=0.5;entryDx=0;entryDy=0;entryPerimeter=0;" parent="1" source="d9jR4iQIcVRkzN9nEGwW-2" target="d9jR4iQIcVRkzN9nEGwW-5" edge="1">
          <mxGeometry relative="1" as="geometry" />
        </mxCell>
        <mxCell id="d9jR4iQIcVRkzN9nEGwW-7" value="/get-songs" style="edgeLabel;html=1;align=center;verticalAlign=middle;resizable=0;points=[];" parent="d9jR4iQIcVRkzN9nEGwW-6" vertex="1" connectable="0">
          <mxGeometry x="-0.0097" y="-1" relative="1" as="geometry">
            <mxPoint as="offset" />
          </mxGeometry>
        </mxCell>
        <mxCell id="d9jR4iQIcVRkzN9nEGwW-10" value="" style="sketch=0;points=[[0,0,0],[0.25,0,0],[0.5,0,0],[0.75,0,0],[1,0,0],[0,1,0],[0.25,1,0],[0.5,1,0],[0.75,1,0],[1,1,0],[0,0.25,0],[0,0.5,0],[0,0.75,0],[1,0.25,0],[1,0.5,0],[1,0.75,0]];outlineConnect=0;fontColor=#232F3E;fillColor=#E7157B;strokeColor=#ffffff;dashed=0;verticalLabelPosition=bottom;verticalAlign=top;align=center;html=1;fontSize=12;fontStyle=0;aspect=fixed;shape=mxgraph.aws4.resourceIcon;resIcon=mxgraph.aws4.api_gateway;" parent="1" vertex="1">
          <mxGeometry x="470" y="550" width="78" height="78" as="geometry" />
        </mxCell>
        <mxCell id="d9jR4iQIcVRkzN9nEGwW-11" value="" style="dashed=0;outlineConnect=0;html=1;align=center;labelPosition=center;verticalLabelPosition=bottom;verticalAlign=top;shape=mxgraph.webicons.json;gradientColor=#DFDEDE" parent="1" vertex="1">
          <mxGeometry x="640" y="157.60000000000002" width="102.4" height="102.4" as="geometry" />
        </mxCell>
        <mxCell id="d9jR4iQIcVRkzN9nEGwW-12" value="" style="sketch=0;points=[[0,0,0],[0.25,0,0],[0.5,0,0],[0.75,0,0],[1,0,0],[0,1,0],[0.25,1,0],[0.5,1,0],[0.75,1,0],[1,1,0],[0,0.25,0],[0,0.5,0],[0,0.75,0],[1,0.25,0],[1,0.5,0],[1,0.75,0]];outlineConnect=0;fontColor=#232F3E;fillColor=#C925D1;strokeColor=#ffffff;dashed=0;verticalLabelPosition=bottom;verticalAlign=top;align=center;html=1;fontSize=12;fontStyle=0;aspect=fixed;shape=mxgraph.aws4.resourceIcon;resIcon=mxgraph.aws4.dynamodb;" parent="1" vertex="1">
          <mxGeometry x="850" y="550" width="78" height="78" as="geometry" />
        </mxCell>
        <mxCell id="d9jR4iQIcVRkzN9nEGwW-32" value="" style="sketch=0;points=[[0,0,0],[0.25,0,0],[0.5,0,0],[0.75,0,0],[1,0,0],[0,1,0],[0.25,1,0],[0.5,1,0],[0.75,1,0],[1,1,0],[0,0.25,0],[0,0.5,0],[0,0.75,0],[1,0.25,0],[1,0.5,0],[1,0.75,0]];outlineConnect=0;fontColor=#232F3E;fillColor=#E7157B;strokeColor=#ffffff;dashed=0;verticalLabelPosition=bottom;verticalAlign=top;align=center;html=1;fontSize=12;fontStyle=0;aspect=fixed;shape=mxgraph.aws4.resourceIcon;resIcon=mxgraph.aws4.eventbridge;" parent="1" vertex="1">
          <mxGeometry x="595" y="390" width="78" height="78" as="geometry" />
        </mxCell>
        <mxCell id="d9jR4iQIcVRkzN9nEGwW-33" style="edgeStyle=orthogonalEdgeStyle;rounded=0;orthogonalLoop=1;jettySize=auto;html=1;exitX=0.75;exitY=0;exitDx=0;exitDy=0;exitPerimeter=0;entryX=0;entryY=0.5;entryDx=0;entryDy=0;entryPerimeter=0;" parent="1" source="d9jR4iQIcVRkzN9nEGwW-10" target="d9jR4iQIcVRkzN9nEGwW-32" edge="1">
          <mxGeometry relative="1" as="geometry" />
        </mxCell>
        <mxCell id="d9jR4iQIcVRkzN9nEGwW-34" value="/save-sotn-winner" style="edgeLabel;html=1;align=center;verticalAlign=middle;resizable=0;points=[];" parent="d9jR4iQIcVRkzN9nEGwW-33" vertex="1" connectable="0">
          <mxGeometry x="-0.259" y="-3" relative="1" as="geometry">
            <mxPoint as="offset" />
          </mxGeometry>
        </mxCell>
        <mxCell id="d9jR4iQIcVRkzN9nEGwW-35" value="" style="sketch=0;points=[[0,0,0],[0.25,0,0],[0.5,0,0],[0.75,0,0],[1,0,0],[0,1,0],[0.25,1,0],[0.5,1,0],[0.75,1,0],[1,1,0],[0,0.25,0],[0,0.5,0],[0,0.75,0],[1,0.25,0],[1,0.5,0],[1,0.75,0]];outlineConnect=0;fontColor=#232F3E;fillColor=#E7157B;strokeColor=#ffffff;dashed=0;verticalLabelPosition=bottom;verticalAlign=top;align=center;html=1;fontSize=12;fontStyle=0;aspect=fixed;shape=mxgraph.aws4.resourceIcon;resIcon=mxgraph.aws4.step_functions;" parent="1" vertex="1">
          <mxGeometry x="752" y="390" width="78" height="78" as="geometry" />
        </mxCell>
        <mxCell id="d9jR4iQIcVRkzN9nEGwW-36" style="edgeStyle=orthogonalEdgeStyle;rounded=0;orthogonalLoop=1;jettySize=auto;html=1;exitX=1;exitY=0.5;exitDx=0;exitDy=0;exitPerimeter=0;entryX=0;entryY=0.5;entryDx=0;entryDy=0;entryPerimeter=0;" parent="1" source="d9jR4iQIcVRkzN9nEGwW-32" target="d9jR4iQIcVRkzN9nEGwW-35" edge="1">
          <mxGeometry relative="1" as="geometry" />
        </mxCell>
        <mxCell id="d9jR4iQIcVRkzN9nEGwW-37" value="SOTN Won&lt;div&gt;Event&lt;/div&gt;" style="edgeLabel;html=1;align=center;verticalAlign=middle;resizable=0;points=[];" parent="d9jR4iQIcVRkzN9nEGwW-36" vertex="1" connectable="0">
          <mxGeometry x="-0.0781" relative="1" as="geometry">
            <mxPoint as="offset" />
          </mxGeometry>
        </mxCell>
        <mxCell id="d9jR4iQIcVRkzN9nEGwW-38" style="edgeStyle=none;rounded=0;orthogonalLoop=1;jettySize=auto;html=1;exitX=0.5;exitY=0;exitDx=0;exitDy=0;exitPerimeter=0;entryX=0.5;entryY=1;entryDx=0;entryDy=0;entryPerimeter=0;" parent="1" source="d9jR4iQIcVRkzN9nEGwW-2" target="d9jR4iQIcVRkzN9nEGwW-3" edge="1">
          <mxGeometry relative="1" as="geometry" />
        </mxCell>
        <mxCell id="dQeXlir5mpHKKs4TOIZq-3" style="edgeStyle=orthogonalEdgeStyle;rounded=0;orthogonalLoop=1;jettySize=auto;html=1;exitX=1;exitY=0.5;exitDx=0;exitDy=0;" edge="1" parent="1" source="dQeXlir5mpHKKs4TOIZq-1" target="d9jR4iQIcVRkzN9nEGwW-2">
          <mxGeometry relative="1" as="geometry" />
        </mxCell>
        <mxCell id="dQeXlir5mpHKKs4TOIZq-1" value="" style="shape=image;html=1;verticalAlign=top;verticalLabelPosition=bottom;labelBackgroundColor=#ffffff;imageAspect=0;aspect=fixed;image=https://cdn4.iconfinder.com/data/icons/logos-brands-7/512/twitch-128.png" vertex="1" parent="1">
          <mxGeometry x="80" y="326" width="68" height="68" as="geometry" />
        </mxCell>
        <mxCell id="dQeXlir5mpHKKs4TOIZq-2" value="" style="sketch=0;aspect=fixed;pointerEvents=1;shadow=0;dashed=0;html=1;strokeColor=none;labelPosition=center;verticalLabelPosition=bottom;verticalAlign=top;align=center;shape=mxgraph.mscae.enterprise.website_generic;fillColor=#7D7D7D;" vertex="1" parent="1">
          <mxGeometry x="98" y="489" width="50" height="44" as="geometry" />
        </mxCell>
        <mxCell id="dQeXlir5mpHKKs4TOIZq-4" style="edgeStyle=orthogonalEdgeStyle;rounded=0;orthogonalLoop=1;jettySize=auto;html=1;exitX=0.93;exitY=0.5;exitDx=0;exitDy=0;exitPerimeter=0;entryX=0.5;entryY=1;entryDx=0;entryDy=0;entryPerimeter=0;" edge="1" parent="1" source="dQeXlir5mpHKKs4TOIZq-2" target="d9jR4iQIcVRkzN9nEGwW-2">
          <mxGeometry relative="1" as="geometry" />
        </mxCell>
      </root>
    </mxGraphModel>
  </diagram>
</mxfile>
